<?xml version="1.0" encoding="UTF-8"?>
<svg id="Layer_1" xmlns="http://www.w3.org/2000/svg" version="1.1" viewBox="0 0 512 512">
  <!-- Generator: Adobe Illustrator 30.0.0, SVG Export Plug-In . SVG Version: 2.1.1 Build 123)  -->
  <defs>
    <style>
      .st0 {
        fill: #fff;
      }

      .st0, .st1 {
        fill-rule: evenodd;
      }
    </style>
  </defs>
  <polygon class="st1" points="256 0 477.71 128 477.71 384 256 512 34.29 384 34.29 128 256 0"/>
  <g>
    <path class="st0" d="M435.47,192.66c0,29.15-23.63,52.78-52.78,52.78s-52.78-23.63-52.78-52.78v-101.35l15.84,9.15,5.27,3.05v89.15c0,17.49,14.18,31.67,31.67,31.67s31.67-14.18,31.67-31.67v-52.59l21.11,12.19v40.39h0Z"/>
    <path class="st0" d="M256,48.64l-52.78,30.48v166.32h21.11v-63.34h63.34v63.34h21.11V79.12l-52.78-30.48h0ZM224.33,91.26l31.67-18.28,31.67,18.28v69.74h-63.34v-69.74h0Z"/>
    <path class="st0" d="M138.49,140.66c24.77,4.35,43.61,25.97,43.61,51.99v52.78h-21.11v-52.78c0-17.49-14.18-31.67-31.67-31.67h-31.67v84.45h-21.11v-93.27c35.19-20.32,70.41-40.55,105.58-60.86v24.18l-43.61,25.18h-.01Z"/>
    <path class="st0" d="M435.47,359.73c-35.19,20.32-70.38,40.64-105.58,60.95v-154.13h21.11v117.62l63.34-36.57v-81.04h21.11v93.18h.01Z"/>
    <path class="st0" d="M256.07,463.4l-52.78-30.48c0-37.85-.09-75.66-.09-113.58,0-29.15,23.63-52.78,52.78-52.78s52.78,23.63,52.78,52.78c0,37.87.09,75.65.09,113.58l-52.78,30.48h0ZM224.4,420.8l31.67,18.28,31.67-18.28c0-33.77-.09-67.59-.09-101.45,0-17.49-14.18-31.67-31.67-31.67s-31.67,14.18-31.67,31.67c0,33.83.09,67.56.09,101.45Z"/>
    <path class="st0" d="M182.09,420.69v-24.33l-43.41-25.07c24.69-4.42,43.41-26,43.41-51.96,0-29.15-23.63-52.78-52.78-52.78h-52.78v93.27c35.17,20.31,70.39,40.55,105.58,60.86h-.01ZM97.64,287.67h31.67c17.49,0,31.67,14.18,31.67,31.67s-14.18,31.67-31.67,31.67h-31.67v-63.34h0Z"/>
  </g>
</svg>