<?xml version="1.0" encoding="UTF-8"?>
<svg id="Layer_1" data-name="Layer 1" xmlns="http://www.w3.org/2000/svg" viewBox="0 0 297.64 343.68">
  <defs>
    <style>
      .cls-1 {
        fill: #fff;
      }

      .cls-1, .cls-2 {
        fill-rule: evenodd;
      }
    </style>
  </defs>
  <polygon class="cls-2" points="148.82 0 297.64 85.92 297.64 257.76 148.82 343.68 0 257.76 0 85.92 148.82 0"/>
  <g>
    <path class="cls-1" d="M269.29,129.32c0,19.57-15.86,35.43-35.43,35.43s-35.43-15.86-35.43-35.43V61.29l10.63,6.14,3.54,2.05v59.84c0,11.74,9.52,21.26,21.26,21.26s21.26-9.52,21.26-21.26v-35.3l14.17,8.18v27.11Z"/>
    <path class="cls-1" d="M148.82,32.65l-35.43,20.46v111.64h14.17v-42.52h42.52v42.52h14.17V53.11l-35.43-20.46h0ZM127.56,61.26l21.26-12.27,21.26,12.27v46.81h-42.52v-46.81Z"/>
    <path class="cls-1" d="M69.94,94.42c16.63,2.92,29.27,17.43,29.27,34.9v35.43h-14.17v-35.43c0-11.74-9.52-21.26-21.26-21.26h-21.26v56.69h-14.17v-62.61c23.62-13.64,47.26-27.22,70.87-40.85v16.23l-29.27,16.9Z"/>
    <path class="cls-1" d="M269.29,241.47c-23.62,13.64-47.24,27.28-70.87,40.91v-103.46h14.17v78.95l42.52-24.55v-54.4h14.17v62.55Z"/>
    <path class="cls-1" d="M148.87,311.06l-35.43-20.46c0-25.41-.06-50.79-.06-76.24,0-19.57,15.86-35.43,35.43-35.43s35.43,15.86,35.43,35.43c0,25.42.06,50.78.06,76.24l-35.43,20.46h0ZM127.61,282.46l21.26,12.27,21.26-12.27c0-22.67-.06-45.37-.06-68.1,0-11.74-9.52-21.26-21.26-21.26s-21.26,9.52-21.26,21.26c0,22.71.06,45.35.06,68.1Z"/>
    <path class="cls-1" d="M99.21,282.39v-16.33l-29.14-16.83c16.57-2.97,29.14-17.45,29.14-34.88,0-19.57-15.86-35.43-35.43-35.43H28.35v62.61c23.61,13.63,47.25,27.22,70.87,40.85h0ZM42.52,193.1h21.26c11.74,0,21.26,9.52,21.26,21.26s-9.52,21.26-21.26,21.26h-21.26v-42.52Z"/>
  </g>
</svg>