<svg viewBox="5974 4893 100.6240234375 100.6240234375" xmlns="http://www.w3.org/2000/svg">
         <path d="M 6042.783 4938.688877929688 C 6040.798 4938.688877929688 6039.265 4939.259877929688 6038.176 4940.382877929687 C 6037.079 4941.502877929687 6036.397 4943.0268779296875 6036.118 4944.954877929687 C 6040.553333333333 4944.954877929687 6044.988666666667 4944.954877929687 6049.424 4944.954877929687 C 6049.279 4942.902877929688 6048.594 4941.348877929688 6047.36 4940.287877929687C 6046.136 4939.223877929688 6044.607 4938.688877929688 6042.783 4938.688877929688Z" fill="#ffffff" fill-opacity="1" font-size-adjust="none" id="tSvg10128957123" stroke="none" stroke-opacity="1" stroke-width="1" title="Path 3">
         </path>
         <path d="M 6013.662 4946.476877929687 C 6012.685 4946.024877929687 6011.306 4945.794877929688 6009.539 4945.777877929688 C 6006.589 4945.777877929688 6003.639 4945.777877929688 6000.689 4945.777877929688 C 6000.689 4949.440544596354 6000.689 4953.103211263021 6000.689 4956.765877929687 C 6003.593333333333 4956.765877929687 6006.497666666667 4956.765877929687 6009.402 4956.765877929687 C 6011.192 4956.765877929687 6012.577 4956.531877929688 6013.577 4956.042877929687 C 6015.38 4955.143877929688 6016.284 4953.433877929688 6016.284 4950.893877929688C 6016.284 4948.751877929688 6015.409 4947.270877929687 6013.662 4946.476877929687Z" fill="#ffffff" fill-opacity="1" font-size-adjust="none" id="tSvg4e1eabe975" stroke="none" stroke-opacity="1" stroke-width="1" title="Path 4">
         </path>
         <path d="M 6013.772 4937.929877929688 C 6014.887 4937.2498779296875 6015.444 4936.040877929688 6015.444 4934.304877929688 C 6015.444 4932.386877929687 6014.707 4931.113877929687 6013.229 4930.501877929688 C 6011.959 4930.0758779296875 6010.334 4929.8568779296875 6008.362 4929.8568779296875 C 6005.804 4929.8568779296875 6003.246 4929.8568779296875 6000.688 4929.8568779296875 C 6000.688 4932.888544596354 6000.688 4935.920211263021 6000.688 4938.951877929688 C 6003.596 4938.951877929688 6006.504 4938.951877929688 6009.412 4938.951877929688C 6011.206 4938.951877929688 6012.656 4938.610877929687 6013.772 4937.929877929688Z" fill="#ffffff" fill-opacity="1" font-size-adjust="none" id="tSvg18a54052823" stroke="none" stroke-opacity="1" stroke-width="1" title="Path 5">
         </path>
         <path d="M 6024.312 4893.9998779296875 C 5997.078 4893.9998779296875 5975 4916.077877929688 5975 4943.311877929687 C 5975 4970.545877929688 5997.078 4992.623877929687 6024.312 4992.623877929687 C 6051.546 4992.623877929687 6073.624 4970.545877929688 6073.624 4943.311877929687C 6073.624 4916.077877929688 6051.546 4893.9998779296875 6024.312 4893.9998779296875Z M 6034.418 4924.407877929688 C 6039.952666666667 4924.407877929688 6045.4873333333335 4924.407877929688 6051.022 4924.407877929688 C 6051.022 4925.7825445963545 6051.022 4927.157211263021 6051.022 4928.531877929688 C 6051.0216666666665 4928.531877929688 6051.021333333333 4928.531877929688 6051.021 4928.531877929688 C 6045.486666666667 4928.531877929688 6039.952333333334 4928.531877929688 6034.418 4928.531877929688C 6034.418 4927.157211263021 6034.418 4925.7825445963545 6034.418 4924.407877929688Z M 6023.14 4958.060877929687 C 6022.359 4959.343877929688 6021.389 4960.426877929687 6020.223 4961.2988779296875 C 6018.91 4962.3078779296875 6017.356 4962.998877929687 6015.57 4963.368877929687 C 6013.778 4963.738877929687 6011.838 4963.925877929688 6009.749 4963.925877929688 C 6003.559666666667 4963.925877929688 5997.370333333333 4963.925877929688 5991.181 4963.925877929688 C 5991.181 4950.182544596354 5991.181 4936.439211263021 5991.181 4922.695877929687 C 5997.818333333334 4922.695877929687 6004.455666666667 4922.695877929687 6011.093 4922.695877929687 C 6016.112 4922.777877929688 6019.67 4924.2318779296875 6021.771 4927.087877929687 C 6023.032 4928.838877929687 6023.656 4930.940877929687 6023.656 4933.3838779296875 C 6023.656 4935.904877929687 6023.024 4937.921877929687 6021.751 4939.453877929687 C 6021.043 4940.312877929688 6019.997 4941.094877929688 6018.612 4941.799877929688 C 6020.71 4942.567877929688 6022.302 4943.7768779296875 6023.365 4945.4418779296875 C 6024.436 4947.100877929687 6024.972 4949.1158779296875 6024.972 4951.480877929687C 6024.971 4953.928877929688 6024.368 4956.122877929687 6023.14 4958.060877929687Z M 6057.435 4950.049877929688 C 6050.267333333333 4950.049877929688 6043.099666666667 4950.049877929688 6035.932 4950.049877929688 C 6036.051 4953.0178779296875 6037.075 4955.093877929688 6039.018 4956.280877929687 C 6040.19 4957.025877929687 6041.611 4957.389877929688 6043.275 4957.389877929688 C 6045.029 4957.389877929688 6046.459 4956.945877929687 6047.56 4956.034877929687 C 6048.16 4955.551877929687 6048.689 4954.869877929687 6049.146 4954.0088779296875 C 6051.773 4954.0088779296875 6054.4 4954.0088779296875 6057.027 4954.0088779296875 C 6056.821 4955.761877929687 6055.872 4957.5398779296875 6054.166 4959.346877929687 C 6051.524 4962.218877929688 6047.818 4963.658877929687 6043.059 4963.658877929687 C 6039.127 4963.658877929687 6035.663 4962.444877929687 6032.655 4960.024877929687 C 6029.658 4957.595877929687 6028.152 4953.657877929688 6028.152 4948.193877929688 C 6028.152 4943.070877929687 6029.504 4939.148877929688 6032.216 4936.419877929688 C 6034.938 4933.684877929688 6038.451 4932.323877929687 6042.782 4932.323877929687 C 6045.349 4932.323877929687 6047.662 4932.782877929688 6049.727 4933.704877929687 C 6051.785 4934.627877929687 6053.485 4936.080877929688 6054.825 4938.077877929688 C 6056.037 4939.836877929687 6056.817 4941.869877929687 6057.18 4944.186877929687C 6057.381 4945.534877929687 6057.472 4947.491877929688 6057.435 4950.049877929688Z" fill="#ffffff" fill-opacity="1" font-size-adjust="none" id="tSvg142a63ca355" stroke="none" stroke-opacity="1" stroke-width="1" title="Path 6">
         </path>
         <defs>
         </defs>
        </svg>