<svg viewBox="5471.99951171875 5051 65.9169921875 56.83203125" xmlns="http://www.w3.org/2000/svg">
         <path d="M 5534.889 5052.103122070313 C 5514.570333333333 5059.848788736979 5494.251666666667 5067.594455403646 5473.933 5075.340122070313 C 5472.705 5075.8171220703125 5472.688 5077.724122070313 5473.886 5078.271122070312 C 5479.090666666667 5080.405788736979 5484.2953333333335 5082.540455403646 5489.5 5084.675122070313 C 5491.4383333333335 5090.7884554036455 5493.376666666667 5096.901788736979 5495.315 5103.015122070313 C 5495.661 5104.003122070312 5496.892 5104.3351220703125 5497.687 5103.654122070313 C 5500.664 5100.883788736979 5503.641 5098.113455403646 5506.618 5095.343122070312 C 5512.277666666667 5099.096788736979 5517.937333333333 5102.850455403646 5523.597 5106.604122070313 C 5524.478 5107.155122070312 5525.639 5106.657122070313 5525.845 5105.639122070313 C 5529.525 5088.355122070312 5533.205 5071.071122070312 5536.885 5053.787122070313C 5537.121 5052.633122070312 5535.986 5051.677122070312 5534.889 5052.103122070313Z M 5498.183 5088.148122070313 C 5497.852333333333 5091.290788736979 5497.5216666666665 5094.433455403646 5497.191 5097.5761220703125 C 5495.6196666666665 5092.738455403646 5494.048333333333 5087.900788736979 5492.477 5083.063122070313 C 5503.558666666667 5075.785788736979 5514.640333333334 5068.508455403646 5525.722 5061.231122070312C 5516.542333333334 5070.203455403645 5507.362666666667 5079.1757887369795 5498.183 5088.148122070313Z" fill="#ffffff" fill-opacity="1" font-size-adjust="none" id="tSvgefc12f7dd5" stroke="none" stroke-opacity="1" stroke-width="1" title="Path 5">
         </path>
         <defs>
         </defs>
        </svg>