<svg viewBox="5517 5058 64.2001953125 43.375" xmlns="http://www.w3.org/2000/svg">
         <path d="M 5561.412 5079.7321220703125 C 5567.674666666667 5085.994788736979 5573.937333333333 5092.2574554036455 5580.2 5098.520122070313 C 5580.2 5085.995122070312 5580.2 5073.470122070313 5580.2 5060.945122070312C 5573.937333333333 5067.207455403646 5567.674666666667 5073.469788736979 5561.412 5079.7321220703125Z" fill="#ffffff" fill-opacity="1" font-size-adjust="none" id="tSvg72d3565bc8" stroke="none" stroke-opacity="1" stroke-width="1" title="Path 1">
         </path>
         <path d="M 5550.905 5086.530122070312 C 5560.077333333334 5077.357788736979 5569.249666666667 5068.185455403645 5578.422 5059.013122070312 C 5578.4 5059.012122070312 5578.381 5059.0001220703125 5578.359 5059.0001220703125 C 5558.879333333333 5059.0001220703125 5539.399666666666 5059.0001220703125 5519.92 5059.0001220703125 C 5529.096 5068.176122070313 5538.272 5077.352122070312 5547.448 5086.528122070313C 5548.365 5087.448122070313 5549.988 5087.447122070313 5550.905 5086.530122070312Z" fill="#ffffff" fill-opacity="1" font-size-adjust="none" id="tSvg687b8ac5e0" stroke="none" stroke-opacity="1" stroke-width="1" title="Path 2">
         </path>
         <path d="M 5552.761 5088.383122070312 C 5551.806 5089.336122070313 5550.535 5089.863122070313 5549.178 5089.863122070313 C 5547.82 5089.863122070313 5546.547 5089.338122070312 5545.593 5088.383122070312 C 5543.252 5086.042122070313 5540.911 5083.7011220703125 5538.57 5081.360122070312 C 5532.247666666667 5087.682455403646 5525.925333333334 5094.004788736979 5519.603 5100.327122070313 C 5519.685 5100.338122070312 5519.758 5100.3751220703125 5519.843 5100.3751220703125 C 5539.344333333333 5100.3751220703125 5558.845666666667 5100.3751220703125 5578.347 5100.3751220703125 C 5572.084333333333 5094.112455403646 5565.821666666667 5087.8497887369795 5559.559 5081.587122070313C 5557.293 5083.852455403646 5555.027 5086.1177887369795 5552.761 5088.383122070312Z" fill="#ffffff" fill-opacity="1" font-size-adjust="none" id="tSvg91630bfa88" stroke="none" stroke-opacity="1" stroke-width="1" title="Path 3">
         </path>
         <path d="M 5518.008 5060.800122070313 C 5518.008 5060.815122070312 5518 5060.827122070313 5518 5060.841122070313 C 5518 5073.300122070313 5518 5085.7591220703125 5518 5098.218122070312 C 5524.237666666667 5091.9804554036455 5530.475333333334 5085.7427887369795 5536.713 5079.505122070313C 5530.478 5073.270122070313 5524.243 5067.035122070312 5518.008 5060.800122070313Z" fill="#ffffff" fill-opacity="1" font-size-adjust="none" id="tSvg836e6c3ea2" stroke="none" stroke-opacity="1" stroke-width="1" title="Path 4">
         </path>
         <defs>
         </defs>
        </svg>