<svg viewBox="5509 4893 100.6240234375 100.6240234375" xmlns="http://www.w3.org/2000/svg">
         <path d="M 5559.312 4893.9998779296875 C 5532.078 4893.9998779296875 5510 4916.077877929688 5510 4943.311877929687 C 5510 4970.545877929688 5532.078 4992.623877929687 5559.312 4992.623877929687 C 5586.546 4992.623877929687 5608.624 4970.545877929688 5608.624 4943.311877929687C 5608.624 4916.077877929688 5586.546 4893.9998779296875 5559.312 4893.9998779296875Z M 5573.8 4922.264877929688 C 5571.456 4922.264877929688 5569.097 4922.264877929688 5566.754 4922.264877929688 C 5565.271 4922.168877929687 5563.741 4923.300877929688 5563.47 4924.783877929687 C 5563.438 4927.350877929687 5563.454 4929.916877929688 5563.454 4932.483877929688 C 5566.897 4932.4998779296875 5570.341 4932.483877929688 5573.785 4932.4998779296875 C 5573.53 4936.213877929687 5573.068 4939.912877929687 5572.526 4943.579877929687 C 5569.481 4943.611877929688 5566.436 4943.579877929687 5563.391 4943.595877929687 C 5563.359 4954.547877929687 5563.407 4965.483877929688 5563.375 4976.436877929687 C 5558.847 4976.452877929688 5554.336 4976.420877929688 5549.808 4976.452877929688 C 5549.728 4965.500877929688 5549.808 4954.5488779296875 5549.76 4943.595877929687 C 5547.56 4943.579877929687 5545.344 4943.611877929688 5543.144 4943.579877929687 C 5543.16 4939.896877929687 5543.144 4936.214877929688 5543.144 4932.547877929687 C 5545.344 4932.515877929687 5547.56 4932.547877929687 5549.76 4932.531877929688 C 5549.824 4928.960877929688 5549.696 4925.373877929687 5549.824 4921.802877929687 C 5550.063 4918.948877929687 5551.131 4916.095877929687 5553.252 4914.134877929688 C 5555.819 4911.695877929687 5559.453 4910.866877929688 5562.897 4910.770877929687 C 5566.532 4910.738877929687 5570.167 4910.754877929688 5573.801 4910.754877929688C 5573.816 4914.596877929687 5573.816 4918.422877929687 5573.8 4922.264877929688Z" fill="#ffffff" fill-opacity="1" font-size-adjust="none" id="tSvg7b14b58096" stroke="none" stroke-opacity="1" stroke-width="1" title="Path 2">
         </path>
         <defs>
         </defs>
        </svg>