<?xml version="1.0" encoding="UTF-8"?>
<svg id="Capa_1" xmlns="http://www.w3.org/2000/svg" version="1.1" viewBox="0 0 512 512">
  <!-- Generator: Adobe Illustrator 30.0.0, SVG Export Plug-In . SVG Version: 2.1.1 Build 123)  -->
  <defs>
    <style>
      .st0 {
        fill: #390000;
      }

      .st1 {
        fill: #ff9a00;
      }
    </style>
  </defs>
  <rect class="st0" width="512" height="512"/>
  <g>
    <path class="st1" d="M248.11,305.92h-79.36l-16.21,50.13c-.43,1.92-2.13,3.2-4.05,2.99h-40.11c-2.35,0-2.99-1.28-2.35-3.84l68.69-197.76c.64-2.13,1.28-4.48,2.13-7.04.85-4.48,1.28-9.17,1.28-13.87-.21-1.07.64-2.13,1.71-2.35h55.25c1.71,0,2.56.64,2.77,1.71l77.87,219.73c.64,2.35,0,3.41-2.13,3.41h-44.59c-1.49.21-2.99-.85-3.41-2.35l-17.49-50.77ZM181.12,262.61h54.19l-27.31-88.96-26.88,88.96Z"/>
    <path class="st1" d="M362.24,170.67c-7.04.21-13.87-2.56-18.99-7.47-4.91-5.33-7.47-12.37-7.25-19.63-.21-7.25,2.56-14.08,7.68-18.99s11.95-7.47,18.99-7.47c8.32,0,14.72,2.56,19.41,7.47,4.69,5.12,7.25,11.95,7.04,18.99.21,7.25-2.35,14.29-7.47,19.63-4.91,5.12-12.16,7.89-19.41,7.47Z"/>
    <path class="st1" d="M338.35,355.84v-164.27c0-2.13.85-2.99,2.77-2.99h42.24c1.92,0,2.77,1.07,2.77,2.99v164.27c0,2.35-.85,3.41-2.77,3.41h-41.81c-2.13,0-3.2-1.28-3.2-3.41Z"/>
  </g>
</svg>