<?xml version="1.0" encoding="UTF-8"?>
<svg id="Capa_1" xmlns="http://www.w3.org/2000/svg" version="1.1" viewBox="0 0 512 512">
  <!-- Generator: Adobe Illustrator 30.0.0, SVG Export Plug-In . SVG Version: 2.1.1 Build 123)  -->
  <defs>
    <style>
      .st0 {
        fill: #fff;
      }

      .st1 {
        fill: #e60023;
      }
    </style>
  </defs>
  <rect class="st0" width="512" height="512"/>
  <path class="st1" d="M192.11,415.64c-1.86-19.63-.72-38.39,3.72-56.3l17.19-74.21c-3.15-9.6-4.87-19.63-5.01-29.65,0-24.07,11.6-41.26,29.94-41.26,12.61,0,21.92,8.88,21.92,25.79,0,5.44-1.15,11.6-3.29,18.34l-7.45,24.64c-1.43,4.73-2.15,9.17-2.15,13.18,0,17.19,13.04,26.79,29.8,26.79,29.94,0,51.14-30.94,51.14-71.06,0-44.7-29.22-73.35-72.35-73.35-48.13,0-78.65,31.37-78.65,75.07,0,17.48,5.44,33.81,15.9,44.98-3.44,5.87-7.16,6.88-12.61,6.88-17.19,0-33.52-24.21-33.52-57.3,0-57.3,45.84-102.72,110.02-102.72,67.33,0,109.74,47.13,109.74,105.01s-41.26,102.43-85.67,102.43c-17.19.29-33.38-7.59-43.84-21.2l-8.88,35.81c-4.44,18.77-12.32,36.67-23.21,52.58,90.4,28.37,186.81-21.92,215.17-112.31,5.3-16.76,7.88-34.24,7.88-51.86,0-94.98-76.93-171.91-171.91-171.91S84.09,160.93,84.09,255.91c0,70.34,42.69,133.66,108.02,159.73"/>
</svg>