<?xml version="1.0" encoding="UTF-8"?>
<svg id="Capa_1" xmlns="http://www.w3.org/2000/svg" version="1.1" viewBox="0 0 512 512">
  <!-- Generator: Adobe Illustrator 30.0.0, SVG Export Plug-In . SVG Version: 2.1.1 Build 123)  -->
  <defs>
    <style>
      .st0 {
        fill: #00a9ff;
      }

      .st1 {
        fill: #001834;
      }
    </style>
  </defs>
  <rect class="st1" width="512" height="512"/>
  <g>
    <path class="st0" d="M115.2,356.48v-219.52c0-1.49.64-2.35,2.13-2.35,3.63,0,7.04,0,11.95-.21,5.12-.21,10.45-.21,16.21-.43s11.95-.21,18.56-.43c6.61-.21,13.01-.21,19.41-.21,17.49,0,32,2.13,43.95,6.61,10.67,3.63,20.48,9.6,28.59,17.49,6.83,6.83,12.16,15.15,15.57,24.32,3.2,8.96,4.91,18.13,4.91,27.73,0,18.35-4.27,33.49-12.8,45.44-8.53,11.95-20.48,20.91-34.35,26.03-14.51,5.33-30.51,7.25-48,7.25-5.12,0-8.53,0-10.67-.21-2.13-.21-5.12-.21-9.17-.21v68.48c.21,1.49-.85,2.77-2.35,2.99h-41.39c-1.71,0-2.56-.85-2.56-2.77h0ZM161.71,175.79v71.68c2.99.21,5.76.43,8.32.43h11.31c14.73,0,31.74-3.46,42.03-15.15,8.85-10.06,8.87-30,1.71-40.96-8.51-13.01-25.52-16.78-40.11-16.43-5.55,0-10.45,0-14.51.21-4.27-.21-7.25,0-8.75.21h0Z"/>
    <path class="st0" d="M409.6,234.45c-6.4-3.41-13.23-5.76-20.48-7.25-7.89-1.71-15.79-2.77-23.89-2.77-4.27-.21-8.75.43-12.8,1.49-2.77.64-5.12,2.13-6.61,4.27-1.07,1.71-1.71,3.84-1.71,5.76s.85,3.84,2.13,5.55c1.92,2.35,4.48,4.27,7.25,5.76,4.91,2.56,10.03,4.91,15.15,7.04,11.52,3.84,22.61,9.17,32.85,15.57,7.04,4.48,12.8,10.45,16.85,17.71,3.41,6.83,5.12,14.29,4.91,21.97.21,10.03-2.77,20.05-8.32,28.37-5.97,8.53-14.29,15.15-23.89,18.99-10.45,4.48-23.25,6.83-38.61,6.83-9.81,0-19.41-.85-29.01-2.77-7.47-1.28-14.93-3.63-21.76-6.83-1.49-.85-2.56-2.35-2.35-4.05v-37.12c0-.64.21-1.49.85-1.92s1.28-.21,1.92.21c8.32,4.91,17.07,8.32,26.45,10.45,8.11,2.13,16.64,3.2,25.17,3.2s13.87-1.07,17.71-2.99c3.41-1.49,5.76-5.12,5.76-8.96,0-2.99-1.71-5.76-5.12-8.53s-10.45-5.97-20.91-10.03c-10.88-3.84-20.91-8.96-30.29-15.36-6.61-4.69-12.16-10.88-16.21-18.13-3.41-6.83-5.12-14.29-4.91-21.76,0-9.17,2.56-17.92,7.25-25.81,5.33-8.53,13.23-15.36,22.4-19.63,10.03-5.12,22.61-7.47,37.76-7.47,8.75,0,17.71.64,26.45,1.92,6.4.85,12.59,2.56,18.35,4.91.85.21,1.71,1.07,2.13,1.92.21.85.43,1.71.43,2.56v34.77c0,.85-.43,1.71-1.07,2.13-1.92.43-2.99.43-3.84,0h0Z"/>
  </g>
</svg>