<?xml version="1.0" encoding="UTF-8"?>
<svg id="Capa_1" xmlns="http://www.w3.org/2000/svg" version="1.1" viewBox="0 0 512 512">
  <!-- Generator: Adobe Illustrator 30.0.0, SVG Export Plug-In . SVG Version: 2.1.1 Build 123)  -->
  <defs>
    <style>
      .st0 {
        fill: #fff;
      }

      .st1 {
        fill: #e60023;
      }
    </style>
  </defs>
  <rect class="st0" width="512" height="512"/>
  <path class="st1" d="M177.99,450.91c-2.27-23.96-.87-46.88,4.55-68.74l20.99-90.6c-3.85-11.72-5.95-23.96-6.12-36.21,0-29.38,14.17-50.37,36.56-50.37,15.39,0,26.76,10.84,26.76,31.48,0,6.65-1.4,14.17-4.02,22.39l-9.1,30.08c-1.75,5.77-2.62,11.19-2.62,16.09,0,20.99,15.92,32.71,36.38,32.71,36.56,0,62.44-37.78,62.44-86.75,0-54.57-35.68-89.55-88.33-89.55-58.77,0-96.02,38.31-96.02,91.65,0,21.34,6.65,41.28,19.41,54.92-4.2,7.17-8.75,8.4-15.39,8.4-20.99,0-40.93-29.56-40.93-69.96,0-69.96,55.97-125.41,134.33-125.41,82.21,0,133.98,57.55,133.98,128.21s-50.37,125.06-104.6,125.06c-20.99.35-40.75-9.27-53.52-25.89l-10.84,43.73c-5.42,22.91-15.04,44.78-28.34,64.19,110.37,34.63,228.08-26.76,262.71-137.13,6.47-20.46,9.62-41.8,9.62-63.32,0-115.96-93.93-209.89-209.89-209.89S46.11,139.93,46.11,255.89c0,85.88,52.12,163.19,131.88,195.02"/>
</svg>