<?xml version="1.0" encoding="UTF-8"?>
<svg id="Capa_1" xmlns="http://www.w3.org/2000/svg" version="1.1" viewBox="0 0 512 512">
  <!-- Generator: Adobe Illustrator 30.0.0, SVG Export Plug-In . SVG Version: 2.1.1 Build 123)  -->
  <defs>
    <style>
      .st0 {
        fill: #99f;
      }

      .st1 {
        fill: #00005b;
      }
    </style>
  </defs>
  <rect class="st1" width="512" height="512"/>
  <g id="Outlined_Mnemonics_Logos">
    <g id="Ae">
      <path class="st0" d="M205.69,305.07h-79.34l-16.14,50.24c-.45,1.89-2.18,3.18-4.12,3.09h-40.19c-2.29,0-3.09-1.26-2.4-3.78l68.69-197.02c.69-2.06,1.37-4.08,2.06-6.71.9-4.58,1.36-9.24,1.37-13.91-.16-1.16.64-2.24,1.81-2.4.2-.03.4-.03.6,0h54.61c1.6,0,2.52.57,2.75,1.72l77.97,218.67c.69,2.29,0,3.44-2.06,3.44h-44.65c-1.59.18-3.06-.85-3.43-2.4l-17.52-50.93ZM165.84,173.75h-.34l-26.79,88.96h54.27l-27.13-88.96Z"/>
      <path class="st0" d="M399.75,285.51h-67.66c.83,6.69,3.05,13.14,6.53,18.92,3.84,5.73,9.27,10.2,15.63,12.88,8.61,3.73,17.93,5.55,27.31,5.35,7.44-.14,14.86-.96,22.15-2.43,6.53-.88,12.92-2.55,19.05-4.96,1.14-.91,1.72-.34,1.72,1.72v32.63c.06.89-.12,1.78-.52,2.58-.39.62-.92,1.15-1.55,1.55-6.79,3.01-13.95,5.14-21.28,6.34-9.96,1.87-20.09,2.73-30.22,2.58-16.26,0-29.89-2.52-40.87-7.56-10.39-4.58-19.56-11.52-26.79-20.26-6.75-8.24-11.78-17.76-14.77-27.99-2.96-10.1-4.47-20.56-4.46-31.08-.03-11.49,1.77-22.91,5.32-33.83,3.43-10.66,8.85-20.56,15.97-29.19,15.7-19.02,37.31-26.95,61.48-26.95,20.83,0,42.2,6.9,55.64,23.52,5.63,7.26,9.93,15.46,12.71,24.21,2.71,8.44,4.1,17.24,4.12,26.1,0,5.04-.17,9.62-.52,13.74-.34,4.12-.63,7.1-.86,8.93-.18,1.57-1.51,2.75-3.09,2.75-1.37,0-3.72.17-7.04.51-3.32.34-7.44.57-12.36.69-4.93.12-10.14-.72-15.63-.72h0ZM332.08,254.22h44.99c5.5,0,9.56-.06,12.19-.17,1.76-.18,3.46-.74,4.98-1.65v-2.06c-.07-2.69-.53-5.35-1.37-7.9-3.81-12.04-15.2-20.06-27.82-19.58-11.81-.71-22.93,5.62-28.34,16.14-2.36,4.79-3.92,9.93-4.64,15.22h0Z"/>
    </g>
  </g>
</svg>