<?xml version="1.0" encoding="UTF-8"?>
<svg id="Capa_1" xmlns="http://www.w3.org/2000/svg" version="1.1" viewBox="0 0 512 512">
  <!-- Generator: Adobe Illustrator 30.0.0, SVG Export Plug-In . SVG Version: 2.1.1 Build 123)  -->
  <defs>
    <style>
      .st0 {
        fill: #fff;
      }
    </style>
  </defs>
  <path class="st0" d="M256,0C114.51,0,0,114.5,0,256s114.5,256,256,256,256-114.5,256-256S397.5,0,256,0ZM156.95,52.75c-7.75,21.1-14.25,42.55-19.5,64.29-15.34-4.66-30.43-10.25-45.24-16.76,18.75-19.7,40.61-35.75,64.74-47.53ZM72.34,124.24c19.17,8.88,38.79,16.3,58.8,22.25-5.81,30.99-9.13,62.54-9.91,94.51H30.5c2.76-42.44,17.23-82.61,41.84-116.76ZM72.34,387.76c-24.61-34.15-39.07-74.32-41.84-116.76h90.72c.79,31.97,4.11,63.51,9.91,94.51-20.01,5.95-39.63,13.37-58.8,22.25ZM92.2,411.71c14.81-6.51,29.9-12.1,45.24-16.76,5.25,21.75,11.75,43.2,19.5,64.29-24.12-11.78-45.98-27.82-64.74-47.53ZM241,481.5c-15.75-1.02-31.2-3.65-46.13-7.83-11.87-28.12-21.34-56.95-28.4-86.36,24.32-5.44,49.2-8.62,74.53-9.52v103.7ZM241,347.78c-27.45.91-54.4,4.31-80.75,10.17-5.23-28.53-8.25-57.55-9.01-86.95h89.76v76.78ZM241,241h-89.76c.76-29.4,3.78-58.42,9.01-86.95,26.35,5.87,53.3,9.27,80.75,10.18v76.78ZM241,134.21c-25.33-.9-50.21-4.08-74.53-9.51,7.06-29.41,16.53-58.24,28.4-86.36,14.94-4.17,30.38-6.8,46.13-7.83v103.7ZM439.66,124.24c24.61,34.15,39.07,74.32,41.84,116.76h-90.72c-.79-31.97-4.11-63.51-9.91-94.51,20.01-5.95,39.63-13.38,58.8-22.25ZM419.8,100.29c-14.81,6.51-29.9,12.1-45.24,16.76-5.25-21.75-11.75-43.2-19.5-64.29,24.12,11.78,45.98,27.82,64.74,47.53ZM271,30.5c15.75,1.02,31.2,3.66,46.14,7.82,11.86,28.12,21.33,56.95,28.4,86.36-24.32,5.44-49.2,8.62-74.53,9.51V30.5ZM271,164.22c27.45-.91,54.4-4.31,80.75-10.18,5.23,28.53,8.25,57.55,9.01,86.95h-89.76v-76.78ZM317.13,473.67c-14.94,4.17-30.38,6.8-46.13,7.83v-103.7c25.33.9,50.21,4.08,74.53,9.52-7.06,29.41-16.53,58.24-28.4,86.36ZM271,347.78v-76.78h89.76c-.76,29.4-3.78,58.42-9.01,86.95-26.35-5.87-53.3-9.27-80.75-10.17ZM355.05,459.25c7.75-21.1,14.25-42.55,19.5-64.29,15.34,4.66,30.43,10.25,45.24,16.76-18.75,19.7-40.61,35.75-64.74,47.53ZM439.66,387.76c-19.17-8.88-38.79-16.3-58.8-22.25,5.81-30.99,9.13-62.54,9.91-94.51h90.72c-2.76,42.44-17.23,82.61-41.84,116.76Z"/>
</svg>