<svg viewBox="6439 4893 100.6240234375 100.6240234375" xmlns="http://www.w3.org/2000/svg">
         <path d="M 6502.161122070313 4918.469877929688 C 6493.513455403646 4918.469877929688 6484.865788736979 4918.469877929688 6476.218122070312 4918.469877929688 C 6469.726122070312 4918.469877929688 6464.444122070313 4923.751877929688 6464.444122070313 4930.243877929687 C 6464.444122070313 4938.970877929687 6464.444122070313 4947.697877929688 6464.444122070313 4956.424877929688 C 6464.444122070313 4962.916877929688 6469.726122070312 4968.198877929687 6476.218122070312 4968.198877929687 C 6484.865788736979 4968.198877929687 6493.513455403646 4968.198877929687 6502.161122070313 4968.198877929687 C 6508.653122070313 4968.198877929687 6513.935122070313 4962.916877929688 6513.935122070313 4956.424877929688 C 6513.935122070313 4947.697877929688 6513.935122070313 4938.970877929687 6513.935122070313 4930.243877929687C 6513.935122070313 4923.751877929688 6508.653122070313 4918.469877929688 6502.161122070313 4918.469877929688Z M 6489.239122070312 4959.010877929688 C 6480.439122070313 4959.010877929688 6473.280122070312 4951.927877929687 6473.280122070312 4943.221877929687 C 6473.280122070312 4934.515877929687 6480.440122070312 4927.4328779296875 6489.239122070312 4927.4328779296875 C 6498.038122070313 4927.4328779296875 6505.198122070313 4934.515877929687 6505.198122070313 4943.221877929687C 6505.198122070313 4951.927877929687 6498.039122070312 4959.010877929688 6489.239122070312 4959.010877929688Z M 6505.4821220703125 4930.541877929688 C 6503.408122070313 4930.541877929688 6501.727122070312 4928.860877929687 6501.727122070312 4926.786877929688 C 6501.727122070312 4924.712877929687 6503.408122070313 4923.031877929688 6505.4821220703125 4923.031877929688 C 6507.556122070312 4923.031877929688 6509.237122070313 4924.712877929687 6509.237122070313 4926.786877929688C 6509.237122070313 4928.860877929687 6507.556122070312 4930.541877929688 6505.4821220703125 4930.541877929688Z" fill="#ffffff" fill-opacity="1" font-size-adjust="none" id="tSvga84056a64c" stroke="none" stroke-opacity="1" stroke-width="1" title="Path 9">
         </path>
         <path d="M 6489.312122070312 4893.9998779296875 C 6462.078122070313 4893.9998779296875 6440.0001220703125 4916.077877929688 6440.0001220703125 4943.311877929687 C 6440.0001220703125 4970.545877929688 6462.078122070313 4992.623877929687 6489.312122070312 4992.623877929687 C 6516.546122070313 4992.623877929687 6538.624122070312 4970.545877929688 6538.624122070312 4943.311877929687C 6538.624122070312 4916.077877929688 6516.546122070313 4893.9998779296875 6489.312122070312 4893.9998779296875Z M 6519.7591220703125 4956.424877929688 C 6519.7591220703125 4966.128877929687 6511.864122070312 4974.022877929688 6502.161122070313 4974.022877929688 C 6493.513455403646 4974.022877929688 6484.865788736979 4974.022877929688 6476.218122070312 4974.022877929688 C 6466.514122070313 4974.022877929688 6458.620122070312 4966.127877929687 6458.620122070312 4956.424877929688 C 6458.620122070312 4947.697877929688 6458.620122070312 4938.970877929687 6458.620122070312 4930.243877929687 C 6458.620122070312 4920.5398779296875 6466.515122070313 4912.645877929687 6476.218122070312 4912.645877929687 C 6484.865788736979 4912.645877929687 6493.513455403646 4912.645877929687 6502.161122070313 4912.645877929687 C 6511.865122070312 4912.645877929687 6519.7591220703125 4920.540877929688 6519.7591220703125 4930.243877929687C 6519.7591220703125 4938.970877929687 6519.7591220703125 4947.697877929688 6519.7591220703125 4956.424877929688Z" fill="#ffffff" fill-opacity="1" font-size-adjust="none" id="tSvg6fdf6c3d01" stroke="none" stroke-opacity="1" stroke-width="1" title="Path 10">
         </path>
         <path d="M 6489.239122070312 4933.245877929688 C 6483.644122070313 4933.245877929688 6479.093122070312 4937.720877929687 6479.093122070312 4943.221877929687 C 6479.093122070312 4948.7228779296875 6483.644122070313 4953.197877929688 6489.239122070312 4953.197877929688 C 6494.834122070312 4953.197877929688 6499.385122070313 4948.7228779296875 6499.385122070313 4943.221877929687C 6499.385122070313 4937.720877929687 6494.834122070312 4933.245877929688 6489.239122070312 4933.245877929688Z" fill="#ffffff" fill-opacity="1" font-size-adjust="none" id="tSvg3ab427a5f3" stroke="none" stroke-opacity="1" stroke-width="1" title="Path 11">
         </path>
         <defs>
         </defs>
        </svg>
