<?xml version="1.0" encoding="UTF-8"?> <svg xmlns="http://www.w3.org/2000/svg" id="Layer_1" data-name="Layer 1" viewBox="0 0 86.54 100"><defs><style> .cls-1 { fill: #fff; fill-rule: evenodd; } </style></defs><path class="cls-1" d="M86.54,34.72c0,7.03-5.7,12.73-12.73,12.73s-12.73-5.7-12.73-12.73V10.29l3.82,2.2,1.27.73v21.5c0,4.22,3.42,7.64,7.64,7.64s7.64-3.42,7.64-7.64v-12.68l5.09,2.94v9.74Z"></path><path class="cls-1" d="M43.27,0l-12.73,7.35v40.1h5.09v-15.27h15.27v15.27h5.09V7.35L43.27,0h0ZM35.64,10.27l7.64-4.41,7.64,4.41v16.81h-15.27V10.27Z"></path><path class="cls-1" d="M14.94,22.19c5.97,1.05,10.51,6.26,10.51,12.53v12.73h-5.09v-12.73c0-4.22-3.42-7.64-7.64-7.64h-7.64v20.36H0v-22.49c8.48-4.9,16.98-9.78,25.45-14.67v5.83l-10.51,6.07Z"></path><path class="cls-1" d="M86.54,75.01c-8.48,4.9-16.97,9.8-25.45,14.7v-37.16h5.09v28.36l15.27-8.82v-19.54h5.09v22.47Z"></path><path class="cls-1" d="M43.29,100l-12.73-7.35c0-9.13-.02-18.24-.02-27.39,0-7.03,5.7-12.73,12.73-12.73s12.73,5.7,12.73,12.73c0,9.13.02,18.24.02,27.39l-12.73,7.35h0ZM35.66,89.73l7.64,4.41,7.64-4.41c0-8.14-.02-16.3-.02-24.46,0-4.22-3.42-7.64-7.64-7.64s-7.64,3.42-7.64,7.64c0,8.16.02,16.29.02,24.46Z"></path><path class="cls-1" d="M25.45,89.7v-5.86l-10.47-6.04c5.95-1.07,10.47-6.27,10.47-12.53,0-7.03-5.7-12.73-12.73-12.73H0v22.49c8.48,4.9,16.97,9.78,25.45,14.67h0ZM5.09,57.63h7.64c4.22,0,7.64,3.42,7.64,7.64s-3.42,7.64-7.64,7.64h-7.64v-15.27Z"></path></svg> 