<svg xmlns="http://www.w3.org/2000/svg" width="93" height="24" viewBox="0 0 93 24">
    <path fill="#FFF" fill-rule="evenodd" d="M84 6v6c0 1.657 1.343 3 3 3 1.598 0 2.904-1.249 2.995-2.824L90 12V6h3v18h-3l.001-6.803c-.883.51-1.908.803-3.001.803-3.314 0-6-2.686-6-6V6h3zM12 0v12l-.001.045L12 18H9v-.803c-.883.51-1.907.803-3 .803-3.314 0-6-2.686-6-6s2.686-6 6-6c1.093 0 2.117.292 3 .803V0h3zm45 0v6h6v3h-6v3c0 1.657 1.343 3 3 3 1.598 0 2.904-1.249 2.995-2.824L63 12h3c0 3.314-2.686 6-6 6s-6-2.686-6-6V3l1.5-3H57zm13.5 0v6h6v3h-6v3c0 1.657 1.343 3 3 3 1.598 0 2.904-1.249 2.995-2.824L76.5 12h3c0 3.314-2.686 6-6 6s-6-2.686-6-6V0h3zM30 6v.803c.883-.51 1.907-.803 3-.803 3.314 0 6 2.686 6 6v6h-3v-6c0-1.657-1.343-3-3-3-1.598 0-2.904 1.249-2.995 2.824L30 12v6h-3V6h3zM19.5 6c3.314 0 6 2.686 6 6s-2.686 6-6 6-6-2.686-6-6 2.686-6 6-6zm27 0c3.238 0 5.878 2.566 5.996 5.775L52.5 12v6h-3l.001-.803c-.883.51-1.908.803-3.001.803-3.314 0-6-2.686-6-6s2.686-6 6-6zM6 9c-1.657 0-3 1.343-3 3s1.343 3 3 3c1.647 0 2.984-1.327 3-2.97l-.001-.059-.004-.147C8.904 10.249 7.598 9 6 9zm13.5 0c-1.657 0-3 1.343-3 3s1.343 3 3 3 3-1.343 3-3-1.343-3-3-3zm27 0c-1.657 0-3 1.343-3 3s1.343 3 3 3 3-1.343 3-3-1.343-3-3-3zm3-9L48 3h-3l1.5-3h3z"/>
</svg>
