<svg viewBox="6205 4893 100.6240234375 100.6240234375" xmlns="http://www.w3.org/2000/svg">
         <path d="M 6255.312 4893.9998779296875 C 6228.078 4893.9998779296875 6206 4916.077877929688 6206 4943.311877929687 C 6206 4970.545877929688 6228.078 4992.623877929687 6255.312 4992.623877929687 C 6282.546 4992.623877929687 6304.624 4970.545877929688 6304.624 4943.311877929687C 6304.624 4916.077877929688 6282.546 4893.9998779296875 6255.312 4893.9998779296875Z M 6283.051 4916.918877929687 C 6279.370666666667 4934.202877929688 6275.690333333333 4951.486877929688 6272.01 4968.770877929687 C 6271.803 4969.788877929687 6270.643 4970.287877929687 6269.762 4969.735877929687 C 6264.102333333333 4965.982211263021 6258.442666666667 4962.228544596354 6252.783 4958.474877929688 C 6249.806 4961.245211263021 6246.829 4964.015544596354 6243.852 4966.785877929688 C 6243.057 4967.465877929688 6241.826 4967.134877929688 6241.48 4966.146877929687 C 6239.541666666667 4960.033544596354 6237.6033333333335 4953.920211263021 6235.665 4947.806877929687 C 6230.46 4945.6722112630205 6225.255 4943.537544596355 6220.05 4941.402877929688 C 6218.852 4940.8568779296875 6218.869 4938.948877929687 6220.097 4938.471877929687 C 6240.415666666667 4930.726211263021 6260.734333333334 4922.980544596354 6281.053 4915.234877929687C 6282.151 4914.808877929688 6283.285 4915.764877929688 6283.051 4916.918877929687Z" fill="#ffffff" fill-opacity="1" font-size-adjust="none" id="tSvg34b5a2cbe2" stroke="none" stroke-opacity="1" stroke-width="1" title="Path 7">
         </path>
         <path d="M 6243.356 4960.707877929687 C 6243.6866666666665 4957.5652112630205 6244.017333333333 4954.422544596354 6244.348 4951.279877929687 C 6253.527333333333 4942.307211263021 6262.706666666667 4933.334544596354 6271.886 4924.361877929688 C 6260.804666666667 4931.639211263021 6249.723333333333 4938.9165445963545 6238.642 4946.193877929688C 6240.213333333333 4951.031877929688 6241.784666666666 4955.869877929687 6243.356 4960.707877929687Z" fill="#ffffff" fill-opacity="1" font-size-adjust="none" id="tSvgf09c494605" stroke="none" stroke-opacity="1" stroke-width="1" title="Path 8">
         </path>
         <defs>
         </defs>
        </svg>