<svg viewBox="5743 4893 100.6240234375 100.6240234375" xmlns="http://www.w3.org/2000/svg">
         <path d="M 5793.312061035156 4893.9998779296875 C 5766.078061035157 4893.9998779296875 5744.000061035156 4916.077877929688 5744.000061035156 4943.311877929687 C 5744.000061035156 4970.545877929688 5766.078061035157 4992.623877929687 5793.312061035156 4992.623877929687 C 5820.5460610351565 4992.623877929687 5842.624061035156 4970.545877929688 5842.624061035156 4943.311877929687C 5842.624061035156 4916.077877929688 5820.5460610351565 4893.9998779296875 5793.312061035156 4893.9998779296875Z M 5823.159061035156 4931.659877929687 C 5819.647061035156 4951.443877929688 5800.024061035157 4968.196877929688 5794.123061035156 4972.022877929688 C 5788.219061035156 4975.848877929688 5782.835061035156 4970.491877929688 5780.883061035156 4966.438877929688 C 5778.647061035156 4961.817877929688 5771.947061035156 4936.765877929687 5770.1930610351565 4934.690877929687 C 5768.438061035156 4932.6158779296875 5763.174061035156 4936.765877929687 5763.174061035156 4936.765877929687 C 5762.323061035157 4935.649877929687 5761.472061035156 4934.533877929687 5760.621061035156 4933.417877929687 C 5760.621061035156 4933.417877929687 5771.311061035156 4920.652877929688 5779.445061035156 4919.055877929687 C 5788.070061035156 4917.362877929688 5788.058061035156 4932.2988779296875 5790.132061035156 4940.591877929687 C 5792.139061035156 4948.612877929688 5793.486061035156 4953.201877929688 5795.2380610351565 4953.201877929688 C 5796.993061035157 4953.201877929688 5800.344061035156 4948.728877929688 5804.012061035156 4941.871877929688 C 5807.686061035156 4935.007877929687 5803.8540610351565 4928.944877929687 5796.673061035156 4933.255877929688C 5799.5460610351565 4916.024877929687 5826.669061035156 4911.881877929687 5823.159061035156 4931.659877929687Z" fill="#ffffff" fill-opacity="1" font-size-adjust="none" id="tSvg18b65ac58a8" stroke="none" stroke-opacity="1" stroke-width="1" title="Path 1">
         </path>
         <defs>
         </defs>
        </svg>